/* XPM */
static char *noname[] = {
/* width height ncolors chars_per_pixel */
"48 48 253 2",
/* colors */
"   c white s BgColor",
" . c #887875",
" X c #7B7A7C",
" o c #817778",
" O c #716565",
" + c #EAE1DF",
" @ c #D47435",
" # c #61748A",
" $ c #394045",
" % c #554E50",
" & c #9DA7B1",
" * c #99B8CE",
" = c #DCDADB",
" - c #D47D42",
" ; c #994E33",
" : c #A57563",
" > c #7D503F",
" , c #B2ACAB",
" < c #B28173",
" 1 c #B95E2E",
" 2 c #C0BCBC",
" 3 c #394048",
" 4 c #394F69",
" 5 c #C26C3A",
" 6 c #5B4845",
" 7 c #AFA39E",
" 8 c #453536",
" 9 c #A96849",
" 0 c #837D80",
" q c #995436",
" w c #113752",
" e c #EBE7E6",
" r c #746864",
" t c #BABDC3",
" y c #55626D",
" u c #C39C6C",
" i c #85452C",
" p c #89807F",
" a c #BA7D56",
" s c #B6653B",
" d c #D9D5D4",
" f c #A99F9B",
" g c #A54927",
" h c #CED0D3",
" j c #7D4B3B",
" k c #747174",
" l c #C3B6B1",
" z c #865747",
" x c #714439",
" c c #444B52",
" v c #DD8236",
" b c #686C72",
" n c #69413B",
" m c #1E2326",
" M c #426688",
" N c #90BEE5",
" B c #4F403F",
" V c #D7D0CB",
" C c #3A5269",
" Z c #A99694",
" A c #3A3F48",
" S c #B8CDDE",
" D c #989697",
" F c #5C6066",
" G c #C5B5AC",
" H c #8B533B",
" J c #7F5343",
" K c #97786B",
" L c #9AC2DE",
" P c #837575",
" I c #864B36",
" U c #74757A",
" Y c #454D59",
" T c #AE6950",
" R c #162B38",
" E c #C09672",
" W c #D6D9DA",
" Q c #C2936A",
" ! c #BD906F",
" ~ c #584344",
" ^ c #FAFAFA",
" / c #BC6536",
" ( c #969DA5",
" ) c #CECFD2",
" _ c #A95D37",
" ` c #382A2B",
" ' c #60849E",
" ] c #CB6D34",
" [ c #594748",
" { c #C59A66",
" } c #BD693A",
" | c #665958",
".  c #83797B",
".. c #8A6357",
".X c #DAD1CD",
".o c #412D2D",
".O c #A8AEB3",
".+ c #2C3236",
".@ c #71797D",
".# c #7B7373",
".$ c #C29F70",
".% c #383E45",
".& c #B66B4A",
".* c #363C43",
".= c #9D5838",
".- c #997A76",
".; c #897C7A",
".: c #BDA28C",
".> c #99C4E6",
"., c #783D2E",
".< c #867877",
".1 c #A34E2A",
".2 c #A18881",
".3 c #B65F36",
".4 c #51555A",
".5 c #C77840",
".6 c #689CC3",
".7 c #4E3F40",
".8 c #AF5E39",
".9 c #DBCCC7",
".0 c #84716B",
".q c #7A4533",
".w c #585D64",
".e c #E18635",
".r c #CA682F",
".t c #D2C2BE",
".y c #BCC1C6",
".u c #487AA0",
".i c #BC9784",
".p c #363E49",
".a c #878588",
".s c #7A6E6E",
".d c #746D72",
".f c #554A43",
".g c #754131",
".h c #8F3B23",
".j c #D3D6D9",
".k c #BC8D70",
".l c #C2B5A4",
".z c #282D31",
".x c #7A4739",
".c c #A7A6A7",
".v c #54342E",
".b c #C66A31",
".n c #736A6A",
".m c #7D5249",
".M c #D0763E",
".N c #5E5252",
".B c #455261",
".V c #B86D44",
".C c #B5532A",
".Z c #BC8C6C",
".A c #905037",
".S c #4C5257",
".D c #5D626B",
".F c #815E53",
".G c #B27C62",
".H c #59595D",
".J c #A54D31",
".K c #B9B0AE",
".L c #A19D9D",
".P c #C3ACA4",
".I c #AE4726",
".U c #5F6670",
".Y c #3C2E30",
".T c #DBCFCC",
".R c #A2715C",
".E c #563A39",
".W c #BEA69F",
".Q c #7F5A54",
".! c #C5B9B3",
".~ c #A15A3A",
".^ c #D4C9C5",
"./ c #D9C6C0",
".( c #212629",
".) c #1E4A68",
"._ c #BB6539",
".` c #3F484D",
".' c #534343",
".] c #AD7460",
".[ c #58403E",
".{ c #968A88",
".} c #513F41",
".| c #A68870",
"X  c #937164",
"X. c #8F97A2",
"XX c #754940",
"Xo c #B16C50",
"XO c #D46F2D",
"X+ c #6B7178",
"X@ c #C27D5A",
"X# c #E3EBF1",
"X$ c #B5A299",
"X% c #DC8138",
"X& c #B78B7A",
"X* c #83B3D8",
"X= c #7B7C81",
"X- c #53595D",
"X; c #E1D2CE",
"X: c #CC733C",
"X> c #374048",
"X, c #79A9CE",
"X< c #DCDEE0",
"X1 c #7C4936",
"X2 c #7D706F",
"X3 c #36617F",
"X4 c #554B4B",
"X5 c #8D9299",
"X6 c #7B8084",
"X7 c #995438",
"X8 c #C6C6C7",
"X9 c #A57968",
"X0 c #8D3B1F",
"Xq c #D3CDCD",
"Xw c #A49595",
"Xe c #9E5C40",
"Xr c #D8722D",
"Xt c #F0EFF0",
"Xy c #5C4A4B",
"Xu c #A15539",
"Xi c #DBD7D8",
"Xp c #A39EA1",
"Xa c #B38A72",
"Xs c #686567",
"Xd c #A99A93",
"Xf c #A2928C",
"Xg c #F1ECEA",
"Xh c #906A60",
"Xj c #E28933",
"Xk c #786766",
"Xl c #44464A",
"Xz c #5A5759",
"Xx c #898B91",
"Xc c #D3D3D3",
"Xv c #78777D",
"Xb c #545153",
"Xn c #674A48",
"Xm c #896B66",
"XM c #484C51",
"XN c #918E92",
"XB c #93523B",
"XV c #34363A",
"XC c #D47D3C",
"XZ c #B4AFB1",
"XA c #ADB0B4",
"XS c #D97A37",
"XD c #C38A60",
"XF c #653832",
"XG c #EDF1F6",
"XH c #B8B7B8",
"XJ c #E3D9D5",
"XK c #7B412D",
"XL c #9CA0A3",
/* pixels */
"                                                                                                ",
"      .l { u Q.|.f.fXa.k.k !.k.Z.Z V                           E Q Q Q Q u u.$ u u !.k.G.P      ",
"        .5XO -.`.`.*XbX@ } } 5 @XrXa                        .i ]XS v.e.eXj v vXj v @.r.V V      ",
"        X$.1 9 Y 3 3.*XzX9Xe.8 ] ] 5.X                     dXCX%XC -XC - -X: 5X:.M.M ] G        ",
"          X  H U.p 3 3X>.*.0.& / 5 @XD                    .: vXCX: 5 5 }._._ s._ 5.b a          ",
"          XqX1 ..D 3 3X>.%.*X2.R.~ _ 1.!                .^ / } }._.3.~X7X7 q qX7.=Xe d          ",
"            Xd J 0.4 3 3 3X>.%.*Xm > j..                 K I I HXB.A I j I I I I i.2            ",
"              ...m o c 3 3 3X>.%XlXz J iXf             d >.x.x.x jX1.g.q j j I I z              ",
"               lX1.. kX> 3 3 3 3X>.*Xz...m            ...g.g.g.q.g J.. zXK I ;.1 l              ",
"                .2XK.0.n 3 A 3 AX> 3.%Xb.N.{         2.g.FXh.. zXh.W.t.P :X7 g.R                ",
"                   > j.0 O.% $ $ $.%.%.*.*Xx.LX8    .F...TXJXJ.^XJ + + eX;.]XB                  ",
"                   ,X1 > P F.%.% $.%.%.%.*.*.`XA 2 ,.-.^XgXgXg e e e +XJ./ <.2                  ",
"                    X  i z.<.` $.% 3.%.%.%.*.*.% (.KXgXgXgXgXg e eXg eXJX;.P                    ",
"                     d z.A.. PXVXV.%X>.*.*.*.*.%.% F eXgXgXgXgXgXg eXJX;XJXq.yX8                ",
"                       7 i IXm.a.zXVX> $.*.*.*.%.%.%X+.jXtXgXgXgXgXJ.9./.TX8 t S &.a &Xc        ",
"                        .F.g.F.{.a.z.+.*.%.*.*.*.*.%.*X-X8 e e =XtXcXl , 2.yXGX# ( *.> NX*.y.y  ",
"                  XcX8 )XZ.Q.. Z.LXs.(.z.*.*.%.*.*.*.*.*.%X5X8 ^.y D.(XM ^ ^ ^ ^X# LX,.6.u M.y  ",
"                   2XHXH 2.{...- ZXN.S.(.+.*.%.%.*.*.*.*.% $ cXl.+XV.(X- ^Xg e.y.O 'X3.) w C.O  ",
"                X8XHXH 2 2 , .Xm.{XwXN.*.z.+.*.*.*.*XV.*.*XV $Xl.(.(XlXLXAX5 U.D.SXV R R y (    ",
"              XcXHXH 2XH 2 2.c Z.K 2XZ D.*.(XV.*XVXV.+XV.+.z.+.(.z.4 (.@X-.z.(.(.(.(XV 4X. h    ",
"           2.a.L.LXp.c.cXZXH 2 2.^XqXqXqXZ.*.(XV.*XV.+.+.+.+ m.z $ c.S.+.(.(.(.(.(XV &          ",
"      Xc D.L.c.LXN.L.L.c ,XZ 2X8XcXi dXH ^X8XV.(XVXV.+.+.+.+.+XVXV.(.(.(.(.(XV.4XA.j            ",
"      X8XN.c ,.cXN 0 DXpXZXH 2X8XcX8X< ^ ^ ^Xx.z.+XV.+.+.(.z.(.(.(.(.( m.(X+.cXLXHX8XN.c        ",
"  X8X8 t.c.y.y.y DXN D ,XHXHXHX8 ^ ^ ^Xt.jXHXx A.z.z.(.(.( m.(.(.(.(.(.+ #XAX< ^ ^X8 b A )      ",
".L.(.(.( c.@ t.y.y.yXAXAXH ) ^ ^ ^X<.OX.X+X+ A.z.(.(.(.( m m m.(.(.zXV.%.BX5Xt ^ ^XLXM F        ",
"XL.(.(.( m.( cX5XA.yX8.j ^Xt WXA.@X-.`XV.+.(.(.(.(.(.(.(.(.z.z.+.+.+XV.*.` F.4.4Xl.( b.y        ",
"XN.a.(.( m.(.(.*.U.yXtXtXHX6X-.*.+.z.(.(.(.(.z.(.(.(.(.(.zXV.*.*.*.+XV.*XlXV.(.z.z.a.aXx 2      ",
"  XL b.z m.zXl b tXHX=Xl.+.(.(.(.zXMXMXM.H FXpXp D DXN U.(.z.% 3 3.*.*.z.z m m bXN.a 0.a.c      ",
"   2.a.dXM.4 b F.SXV.z.( U.a.aX=.a.{XNXN DXp.c.cXp.L D.a U.z.+ A 3 3.%XV.*.+.*.SXv k 0.cX8      ",
"    Xp 0 U.4.*.` $.+.(.H.a.aX= o. .; p.{.{ D D D.a p o.n.d UXl.+.% 3 3.% $ $ A 3 b.d.L          ",
"    Xc X U X c.w.z m m.H.n | OX2 P.;.<.  p.{ p. .s OXs %.7X4X=Xl.z $X>X> 3 3X>X> cXxX8          ",
"      XNXs U UXl.(.(.(Xv O.s.#.s.s.#.s.s o o.s.#XsX4.'.Y ` ` 8XvXl.+ 3X> 3 3 3 3 3XA            ",
"      .c kXs X U.+.(.( U O O O O O |Xs | | |.n 0 X % ` ` ` ` 8.7 U.w.*X> 3 3 3 3 3X5            ",
"      XZ.aX= 0X6 UXl.zX6.E [.NXy ~ B.'.'.}Xy.a D D 0 8 `.Y 8.7.' ~.d.D.* 3 3 3 3 3.a            ",
"      XH DXN D r nXk.  0.o.o.Y `.Y.Y 8 8.7 0.c.L.L D.n ` 8.7.[ B.7.7XsXv AX> 3 3 3XM h          ",
"      .yXpXp D x.,.gXF.v.v.o ` `.Y.Y 8 8 OXH.c.cXp.c DX4 8.7.7 8 8 8 8 %Xv cX>X>X> 3 (          ",
"       ).yXZ.F iXB H n.E.E 8.o.Y.Y 8.7.NXH.y 2 2 2XHXZ ,X4 8 8 8 8 8 8 8.}Xv Y 3 3X>X-.O        ",
"           f.JXuXe zXX.[.[.7 8 8 8.7 8 D         )X8 )   o.o 8 8 8.o.o 8.o.7Xv.w 3X> 3Xx        ",
"           T ; H z.mXnXn 6.}.7.7.7.7 |                     %.o.o.o.o 8 8.o.Y 8 k.U 3 3X6Xc      ",
"        X&.I x n nXnXn.NXy [.'.'.}.'XH                     , `.o.o.o.Y.o 8.Y.o 8Xs U 3.aXc      ",
"      .X.C.,XF.E.[ ~XyXyXy [ ~.' 8.s                        .N `.Y.o.Y.Y.Y.Y.Y.Y.Y.'Xb %XZ      ",
"      Xo.hXF.v.E.E.[ ~ ~.'.} B 8.} 2                         2 8.Y.Y.Y.Y.Y.Y.Y.Y.Y.Y.Y ` |      ",
"    X$X0XFXF.v 8.v.7.7 8 8 8.Y `XN                             O ` ` ` ` ` ` ` ` ` ` `.Y ` D    ",
"    .XXHXHXHXZXZ ,.cXp.L.L D D DXH.y 2 2 2 2XHXHXHXHXHXHXHXH 2.c.aXNXNXNXN D D.L.LXp.c , ,XH    ",
"                        Xc )X8X8 2XHXHXHXHXZXZXZXZXZXZXZXZXZXZXH 2 2.yX8X8X8 )Xc                ",
"                                   dXcXcXcXcXcXcXcXcXcXcXcXcXcXcXc d                            ",
"                                                                                                ",
"                                                                                                "
};
